<svg xmlns="http://www.w3.org/2000/svg" width="384.1" height="332.837" viewBox="0 0 288.075 249.628"><g fill="none" stroke="#000" stroke-width=".72"><path d="M.037 249.12 144.037 0l.293.212L288.075 249.48l-.33.148L0 249.48m212.284.109v-43.56M37.801 183.788l37.724 21.78M182.027 65.583l-37.724 21.78m-.431 162.191.165-83.234m-72-41.76 72 41.76m72.166-41.474-72.166 41.474M75.525 205.568v43.95m68.778-162.156-38.062-21.975M212.284 206.03l38.062-21.976M75.525 205.568l68.512-39.248m.266-78.958-.266 78.958m68.247 39.71-68.247-39.71"/></g></svg>