<svg width="913" height="1044" viewBox="0 0 913 1044" stroke-width="4.87" stroke-linecap="round" stroke-linejoin="round" fill="none" stroke="#d1dbe2" xmlns="http://www.w3.org/2000/svg">
<path d="M50.9956 138.912L51.0509 31.09L51.1858 31.104L144.535 85.0629L144.455 85.1727L51.0509 139.036" />
<path d="M51.0048 120.935L66.7517 129.982" />
<path d="M66.7499 40.1006V40.1006L51.0416 49.2144" />
<path d="M128.882 94.1534V94.1534L128.843 75.9927" />
<path d="M146.159 85.7233L146.104 193.545L145.969 193.531L52.62 139.572L52.6995 139.463L146.104 85.5994" />
<path d="M146.15 103.701L130.403 94.6536" />
<path d="M130.405 184.535V184.535L146.113 175.421" />
<path d="M68.2729 130.482V130.482L68.3115 148.643" />
<path d="M51.5057 140.81L144.855 194.769L144.775 194.879L51.3708 248.742L51.3155 248.618L51.3708 140.796" />
<path d="M67.0698 149.807L51.3615 158.92" />
<path d="M129.202 203.859V203.859L129.163 185.699" />
<path d="M51.3247 230.641V230.641L67.0716 239.688" />
<path d="M52.0748 248.717L145.479 194.854L145.534 194.978L145.479 302.8L145.344 302.786L51.9952 248.827" />
<path d="M67.6481 239.737L67.6867 257.898" />
<path d="M145.525 212.955V212.955L129.778 203.909" />
<path d="M129.78 293.79V293.79L145.488 284.676" />
<path d="M144.705 303.044L51.301 356.907L51.2456 356.783L51.301 248.961L51.4359 248.975L144.785 302.934" />
<path d="M129.132 312.024L129.093 293.864" />
<path d="M51.2549 338.806V338.806L67.0018 347.853" />
<path d="M67 257.972V257.972L51.2917 267.085" />
<path d="M145.274 412.45L51.9254 358.491L52.0049 358.381L145.409 304.518L145.464 304.642L145.409 412.464" />
<path d="M129.71 403.453L145.418 394.34" />
<path d="M67.5783 349.401V349.401L67.6169 367.561" />
<path d="M145.455 322.619V322.619L129.708 313.572" />
<path d="M50.9956 467.162L51.0509 359.34L51.1858 359.354L144.535 413.313L144.455 413.423L51.0509 467.286" />
<path d="M146.159 413.973L146.104 521.795L145.969 521.781L52.62 467.822L52.6995 467.713L146.104 413.849" />
<path d="M146.117 496.625L124.236 509.219" />
<path d="M74.4114 480.419L74.4451 455.173" />
<path d="M124.299 426.423L146.146 439.075" />
<path d="M114.943 467.822L146.104 521.795" />
<path d="M114.943 467.822L52.62 467.822" />
<path d="M114.943 467.822L146.104 413.849" />
<path d="M51.5057 469.06L144.855 523.019L144.775 523.129L51.3708 576.992L51.3155 576.868L51.3708 469.046" />
<path d="M123.063 510.423L123.029 535.669" />
<path d="M73.1751 564.418L51.3283 551.766" />
<path d="M51.3579 494.216L73.2384 481.622" />
<path d="M82.532 523.019H144.855" />
<path d="M82.532 523.019L51.3708 576.992" />
<path d="M82.532 523.019L51.3708 469.046" />
<path d="M52.0748 576.967L145.479 523.104L145.534 523.228L145.479 631.05L145.344 631.036L51.9952 577.077" />
<path d="M123.675 535.678L145.521 548.33" />
<path d="M145.492 605.88L123.611 618.474" />
<path d="M73.7866 589.673L73.8203 564.427" />
<path d="M114.318 577.077L145.479 523.104" />
<path d="M114.318 577.077L145.479 631.05" />
<path d="M114.318 577.077L51.9952 577.077" />
<path d="M144.705 631.294L51.301 685.157L51.2456 685.033L51.301 577.211L51.4359 577.225L144.785 631.184" />
<path d="M129.132 640.274L129.093 622.114" />
<path d="M51.2549 667.056V667.056L67.0018 676.103" />
<path d="M67 586.222V586.222L51.2917 595.335" />
<path d="M145.274 740.7L51.9254 686.741L52.0049 686.631L145.409 632.768L145.464 632.892L145.409 740.714" />
<path d="M129.71 731.703L145.418 722.59" />
<path d="M67.5783 677.651V677.651L67.6169 695.811" />
<path d="M145.455 650.869V650.869L129.708 641.822" />
<path d="M50.9956 795.412L51.0509 687.59L51.1858 687.604L144.535 741.563L144.455 741.673L51.0509 795.536" />
<path d="M51.038 712.76L72.9185 700.166" />
<path d="M122.743 728.967L122.71 754.213" />
<path d="M72.8553 782.962L51.0085 770.31" />
<path d="M82.2122 741.563L51.0509 687.59" />
<path d="M82.2122 741.563L144.535 741.563" />
<path d="M82.2122 741.563L51.0509 795.536" />
<path d="M146.159 742.223L146.104 850.045L145.969 850.031L52.62 796.072L52.6995 795.963L146.104 742.099" />
<path d="M146.15 760.2L130.403 751.154" />
<path d="M130.405 841.035V841.035L146.113 831.921" />
<path d="M68.2729 786.982V786.982L68.3115 805.143" />
<path d="M144.705 959.544L51.301 1013.41L51.2456 1013.28L51.301 905.461L51.4359 905.475L144.785 959.434" />
<path d="M129.132 968.524L129.093 950.364" />
<path d="M51.2549 995.306V995.306L67.0018 1004.35" />
<path d="M67 914.472V914.472L51.2917 923.585" />
<path d="M147.627 84.5924L241.031 30.7293L241.087 30.8531L241.031 138.675L240.896 138.661L147.547 84.7022" />
<path d="M163.2 75.6118L163.239 93.7725" />
<path d="M241.077 48.8304V48.8304L225.33 39.7835" />
<path d="M225.332 129.665V129.665L241.041 120.551" />
<path d="M240.257 138.919L146.853 192.782L146.798 192.658L146.853 84.836L146.988 84.85L240.337 138.809" />
<path d="M224.684 147.899L224.645 129.739" />
<path d="M146.807 174.681V174.681L162.554 183.728" />
<path d="M162.552 93.8466V93.8466L146.844 102.96" />
<path d="M240.827 248.325L147.478 194.366L147.557 194.256L240.961 140.393L241.017 140.517L240.961 248.339" />
<path d="M225.262 239.328L240.971 230.215" />
<path d="M163.131 185.276V185.276L163.169 203.436" />
<path d="M241.008 158.494V158.494L225.261 149.447" />
<path d="M146.548 303.037L146.603 195.215L146.738 195.229L240.087 249.188L240.007 249.298L146.603 303.161" />
<path d="M146.557 285.06L162.304 294.107" />
<path d="M162.302 204.226V204.226L146.594 213.339" />
<path d="M224.434 258.278V258.278L224.395 240.118" />
<path d="M241.711 249.848L241.656 357.67L241.521 357.656L148.172 303.697L148.252 303.588L241.656 249.724" />
<path d="M241.702 267.826L225.955 258.779" />
<path d="M225.957 348.66V348.66L241.665 339.546" />
<path d="M163.825 294.607V294.607L163.864 312.768" />
<path d="M147.058 304.935L240.407 358.894L240.327 359.004L146.923 412.867L146.868 412.743L146.923 304.921" />
<path d="M162.622 313.932L146.914 323.045" />
<path d="M224.754 367.984V367.984L224.715 349.824" />
<path d="M146.877 394.766V394.766L162.624 403.813" />
<path d="M147.627 412.842L241.031 358.979L241.087 359.103L241.031 466.925L240.896 466.911L147.547 412.952" />
<path d="M163.2 403.862L163.239 422.022" />
<path d="M241.077 377.08V377.08L225.33 368.033" />
<path d="M225.332 457.914V457.914L241.041 448.801" />
<path d="M240.257 467.169L146.853 521.032L146.798 520.908L146.853 413.086L146.988 413.1L240.337 467.059" />
<path d="M224.684 476.149L224.645 457.989" />
<path d="M146.807 502.931V502.931L162.554 511.978" />
<path d="M162.552 422.097V422.097L146.844 431.21" />
<path d="M240.827 576.575L147.478 522.616L147.557 522.506L240.961 468.643L241.017 468.767L240.961 576.589" />
<path d="M225.262 567.578L240.971 558.465" />
<path d="M163.131 513.526V513.526L163.169 531.686" />
<path d="M241.008 486.744V486.744L225.261 477.697" />
<path d="M146.548 631.287L146.603 523.465L146.738 523.479L240.087 577.438L240.007 577.548L146.603 631.411" />
<path d="M146.557 613.31L162.304 622.357" />
<path d="M162.302 532.476V532.476L146.594 541.589" />
<path d="M224.434 586.528V586.528L224.395 568.368" />
<path d="M241.711 578.098L241.656 685.92L241.521 685.906L148.172 631.947L148.252 631.838L241.656 577.974" />
<path d="M241.669 660.75L219.788 673.344" />
<path d="M169.964 644.544L169.997 619.298" />
<path d="M219.852 590.548L241.698 603.2" />
<path d="M210.495 631.947L241.656 685.92" />
<path d="M210.495 631.947L148.172 631.947" />
<path d="M210.495 631.947L241.656 577.974" />
<path d="M147.058 633.185L240.407 687.144L240.327 687.254L146.923 741.117L146.868 740.993L146.923 633.171" />
<path d="M162.622 642.182L146.914 651.295" />
<path d="M224.754 696.234V696.234L224.715 678.074" />
<path d="M146.877 723.016V723.016L162.624 732.063" />
<path d="M242.1 138.912L242.155 31.09L242.29 31.104L335.639 85.0629L335.56 85.1727L242.155 139.036" />
<path d="M337.264 85.7233L337.208 193.545L337.073 193.531L243.724 139.572L243.804 139.463L337.208 85.5994" />
<path d="M242.61 140.81L335.959 194.769L335.879 194.879L242.475 248.742L242.42 248.618L242.475 140.796" />
<path d="M258.174 149.807L242.466 158.92" />
<path d="M320.306 203.859V203.859L320.268 185.699" />
<path d="M242.429 230.641V230.641L258.176 239.688" />
<path d="M243.179 248.717L336.583 194.854L336.639 194.978L336.583 302.8L336.449 302.786L243.1 248.827" />
<path d="M335.81 303.044L242.405 356.907L242.35 356.783L242.405 248.961L242.54 248.975L335.889 302.934" />
<path d="M320.236 312.024L320.198 293.864" />
<path d="M242.359 338.806V338.806L258.106 347.853" />
<path d="M258.104 257.972V257.972L242.396 267.085" />
<path d="M336.379 412.45L243.03 358.491L243.109 358.381L336.514 304.518L336.569 304.642L336.514 412.464" />
<path d="M320.815 403.453L336.523 394.34" />
<path d="M258.683 349.401V349.401L258.721 367.561" />
<path d="M336.56 322.619V322.619L320.813 313.572" />
<path d="M242.1 467.162L242.155 359.34L242.29 359.354L335.639 413.313L335.56 413.423L242.155 467.286" />
<path d="M242.109 449.185L257.856 458.232" />
<path d="M257.854 368.351V368.351L242.146 377.464" />
<path d="M319.986 422.403V422.403L319.948 404.243" />
<path d="M337.264 413.973L337.208 521.795L337.073 521.781L243.724 467.822L243.804 467.713L337.208 413.849" />
<path d="M337.254 431.951L321.507 422.904" />
<path d="M321.509 512.785V512.785L337.218 503.671" />
<path d="M259.377 458.732V458.732L259.416 476.893" />
<path d="M242.61 469.06L335.959 523.019L335.879 523.129L242.475 576.992L242.42 576.868L242.475 469.046" />
<path d="M258.174 478.057L242.466 487.17" />
<path d="M320.306 532.109V532.109L320.268 513.949" />
<path d="M242.429 558.891V558.891L258.176 567.938" />
<path d="M243.179 576.967L336.583 523.104L336.639 523.228L336.583 631.05L336.449 631.036L243.1 577.077" />
<path d="M258.753 567.987L258.791 586.147" />
<path d="M336.63 541.205V541.205L320.883 532.159" />
<path d="M320.884 622.04V622.04L336.593 612.926" />
<path d="M335.81 631.294L242.405 685.157L242.35 685.033L242.405 577.211L242.54 577.225L335.889 631.184" />
<path d="M320.236 640.274L320.198 622.114" />
<path d="M242.359 667.056V667.056L258.106 676.103" />
<path d="M258.104 586.222V586.222L242.396 595.335" />
<path d="M336.379 740.7L243.03 686.741L243.109 686.631L336.514 632.768L336.569 632.892L336.514 740.714" />
<path d="M320.815 731.703L336.523 722.59" />
<path d="M258.683 677.651V677.651L258.721 695.811" />
<path d="M336.56 650.869V650.869L320.813 641.822" />
<path d="M338.731 84.5924L432.136 30.7293L432.191 30.8531L432.136 138.675L432.001 138.661L338.652 84.7022" />
<path d="M354.305 75.6118L354.343 93.7725" />
<path d="M432.182 48.8304V48.8304L416.435 39.7835" />
<path d="M416.437 129.665V129.665L432.145 120.551" />
<path d="M431.362 138.919L337.958 192.782L337.902 192.658L337.958 84.836L338.093 84.85L431.441 138.809" />
<path d="M415.789 147.899L415.75 129.739" />
<path d="M337.912 174.681V174.681L353.658 183.728" />
<path d="M353.657 93.8466V93.8466L337.948 102.96" />
<path d="M431.931 248.325L338.582 194.366L338.662 194.256L432.066 140.393L432.121 140.517L432.066 248.339" />
<path d="M416.367 239.328L432.075 230.215" />
<path d="M354.235 185.276V185.276L354.274 203.436" />
<path d="M432.112 158.494V158.494L416.365 149.447" />
<path d="M337.652 303.037L337.708 195.215L337.842 195.229L431.191 249.188L431.112 249.298L337.708 303.161" />
<path d="M337.661 285.06L353.408 294.107" />
<path d="M353.407 204.226V204.226L337.698 213.339" />
<path d="M415.538 258.278V258.278L415.5 240.118" />
<path d="M432.816 249.848L432.76 357.67L432.626 357.656L339.277 303.697L339.356 303.588L432.76 249.724" />
<path d="M432.807 267.826L417.06 258.779" />
<path d="M417.061 348.66V348.66L432.77 339.546" />
<path d="M354.93 294.607V294.607L354.968 312.768" />
<path d="M338.162 304.935L431.511 358.894L431.432 359.004L338.027 412.867L337.972 412.743L338.027 304.921" />
<path d="M353.727 313.932L338.018 323.045" />
<path d="M415.858 367.984V367.984L415.82 349.824" />
<path d="M337.981 394.766V394.766L353.728 403.813" />
<path d="M338.731 412.842L432.136 358.979L432.191 359.103L432.136 466.925L432.001 466.911L338.652 412.952" />
<path d="M410.331 371.553L432.178 384.205" />
<path d="M432.149 441.755L410.268 454.349" />
<path d="M360.443 425.548L360.477 400.302" />
<path d="M400.974 412.952L432.136 358.979" />
<path d="M400.974 412.952L432.136 466.925" />
<path d="M400.974 412.952L338.652 412.952" />
<path d="M431.362 467.169L337.958 521.032L337.902 520.908L337.958 413.086L338.093 413.1L431.441 467.059" />
<path d="M359.762 508.458L337.915 495.806" />
<path d="M337.945 438.256L359.825 425.662" />
<path d="M409.65 454.463L409.616 479.709" />
<path d="M369.119 467.059L337.958 521.032" />
<path d="M369.119 467.059L337.958 413.086" />
<path d="M369.119 467.059L431.441 467.059" />
<path d="M431.931 576.575L338.582 522.616L338.662 522.506L432.066 468.643L432.121 468.767L432.066 576.589" />
<path d="M360.373 535.212L360.407 509.966" />
<path d="M410.262 481.217L432.108 493.869" />
<path d="M432.079 551.419L410.198 564.013" />
<path d="M400.905 522.616H338.582" />
<path d="M400.905 522.616L432.066 468.643" />
<path d="M400.905 522.616L432.066 576.589" />
<path d="M337.652 631.287L337.708 523.465L337.842 523.479L431.191 577.438L431.112 577.548L337.708 631.411" />
<path d="M337.661 613.31L353.408 622.357" />
<path d="M353.407 532.476V532.476L337.698 541.589" />
<path d="M415.538 586.528V586.528L415.5 568.368" />
<path d="M433.204 138.912L433.26 31.09L433.395 31.104L526.744 85.0629L526.664 85.1727L433.26 139.036" />
<path d="M433.214 120.935L448.961 129.982" />
<path d="M448.959 40.1007V40.1007L433.25 49.2145" />
<path d="M511.091 94.1534V94.1534L511.052 75.9927" />
<path d="M528.368 85.7233L528.313 193.545L528.178 193.531L434.829 139.572L434.908 139.463L528.313 85.5994" />
<path d="M528.326 168.375L506.445 180.969" />
<path d="M456.62 152.169L456.654 126.923" />
<path d="M506.508 98.1733L528.355 110.826" />
<path d="M497.151 139.572L528.313 193.545" />
<path d="M497.151 139.572L434.829 139.572" />
<path d="M497.151 139.572L528.313 85.5994" />
<path d="M433.715 140.81L527.063 194.769L526.984 194.879L433.58 248.742L433.524 248.618L433.58 140.796" />
<path d="M505.272 182.173L505.238 207.419" />
<path d="M455.384 236.168L433.537 223.516" />
<path d="M433.567 165.966L455.447 153.372" />
<path d="M464.741 194.769H527.063" />
<path d="M464.741 194.769L433.58 248.742" />
<path d="M464.741 194.769L433.58 140.796" />
<path d="M434.284 248.717L527.688 194.854L527.743 194.978L527.688 302.8L527.553 302.786L434.204 248.827" />
<path d="M505.884 207.428L527.73 220.08" />
<path d="M527.701 277.63L505.82 290.224" />
<path d="M455.996 261.423L456.029 236.177" />
<path d="M496.527 248.827L527.688 194.854" />
<path d="M496.527 248.827L527.688 302.8" />
<path d="M496.527 248.827L434.204 248.827" />
<path d="M526.914 303.044L433.51 356.907L433.455 356.783L433.51 248.961L433.645 248.975L526.994 302.934" />
<path d="M511.341 312.024L511.302 293.864" />
<path d="M433.464 338.806V338.806L449.211 347.853" />
<path d="M449.209 257.972V257.972L433.501 267.085" />
<path d="M527.483 412.45L434.134 358.491L434.214 358.381L527.618 304.518L527.673 304.642L527.618 412.464" />
<path d="M433.204 467.162L433.26 359.34L433.395 359.354L526.744 413.313L526.664 413.423L433.26 467.286" />
<path d="M433.214 449.185L448.961 458.232" />
<path d="M448.959 368.351V368.351L433.25 377.464" />
<path d="M511.091 422.403V422.403L511.052 404.243" />
<path d="M528.368 413.973L528.313 521.795L528.178 521.781L434.829 467.822L434.908 467.713L528.313 413.849" />
<path d="M528.326 496.625L506.445 509.219" />
<path d="M456.62 480.419L456.654 455.173" />
<path d="M506.508 426.423L528.355 439.075" />
<path d="M497.151 467.822L528.313 521.795" />
<path d="M497.151 467.822L434.829 467.822" />
<path d="M497.151 467.822L528.313 413.849" />
<path d="M529.836 84.5924L623.24 30.7293L623.295 30.8531L623.24 138.675L623.105 138.661L529.756 84.7022" />
<path d="M545.409 75.6118L545.448 93.7725" />
<path d="M623.286 48.8304V48.8304L607.539 39.7835" />
<path d="M607.541 129.665V129.665L623.249 120.551" />
<path d="M622.466 138.919L529.062 192.782L529.007 192.658L529.062 84.836L529.197 84.85L622.546 138.809" />
<path d="M550.867 180.208L529.02 167.556" />
<path d="M529.049 110.006L550.93 97.4123" />
<path d="M600.755 126.213L600.721 151.459" />
<path d="M560.223 138.809L529.062 192.782" />
<path d="M560.223 138.809L529.062 84.836" />
<path d="M560.223 138.809L622.546 138.809" />
<path d="M623.035 248.325L529.687 194.366L529.766 194.256L623.17 140.393L623.226 140.517L623.17 248.339" />
<path d="M551.478 206.962L551.512 181.716" />
<path d="M601.366 152.967L623.213 165.619" />
<path d="M623.183 223.169L601.303 235.763" />
<path d="M592.009 194.366H529.687" />
<path d="M592.009 194.366L623.17 140.393" />
<path d="M592.009 194.366L623.17 248.339" />
<path d="M528.757 303.037L528.812 195.215L528.947 195.229L622.296 249.188L622.216 249.298L528.812 303.161" />
<path d="M528.799 220.385L550.68 207.791" />
<path d="M600.504 236.592L600.471 261.838" />
<path d="M550.616 290.587L528.77 277.935" />
<path d="M559.973 249.188L528.812 195.215" />
<path d="M559.973 249.188L622.296 249.188" />
<path d="M559.973 249.188L528.812 303.161" />
<path d="M623.92 249.848L623.865 357.67L623.73 357.656L530.381 303.697L530.461 303.588L623.865 249.724" />
<path d="M623.911 267.826L608.164 258.779" />
<path d="M608.166 348.66V348.66L623.874 339.546" />
<path d="M546.034 294.607V294.607L546.073 312.768" />
<path d="M529.267 304.935L622.616 358.894L622.536 359.004L529.132 412.867L529.077 412.743L529.132 304.921" />
<path d="M600.824 346.298L600.791 371.544" />
<path d="M550.936 400.293L529.089 387.641" />
<path d="M529.119 330.091L551 317.497" />
<path d="M560.293 358.894H622.616" />
<path d="M560.293 358.894L529.132 412.867" />
<path d="M560.293 358.894L529.132 304.921" />
<path d="M529.836 412.842L623.24 358.979L623.295 359.103L623.24 466.925L623.105 466.911L529.756 412.952" />
<path d="M545.409 403.862L545.448 422.022" />
<path d="M623.286 377.08V377.08L607.539 368.033" />
<path d="M607.541 457.914V457.914L623.249 448.801" />
<path d="M622.466 467.169L529.062 521.032L529.007 520.908L529.062 413.086L529.197 413.1L622.546 467.059" />
<path d="M624.309 138.912L624.364 31.09L624.499 31.104L717.848 85.0629L717.768 85.1727L624.364 139.036" />
<path d="M719.472 85.7233L719.417 193.545L719.282 193.531L625.933 139.572L626.013 139.463L719.417 85.5994" />
<path d="M624.819 140.81L718.168 194.769L718.088 194.879L624.684 248.742L624.629 248.618L624.684 140.796" />
<path d="M640.383 149.807L624.675 158.92" />
<path d="M702.515 203.859V203.859L702.476 185.699" />
<path d="M624.638 230.641V230.641L640.385 239.688" />
<path d="M625.388 248.717L718.792 194.854L718.848 194.978L718.792 302.8L718.657 302.786L625.309 248.827" />
<path d="M640.961 239.737L641 257.898" />
<path d="M718.838 212.955V212.955L703.092 203.909" />
<path d="M703.093 293.79V293.79L718.802 284.676" />
<path d="M718.019 303.044L624.614 356.907L624.559 356.783L624.614 248.961L624.749 248.975L718.098 302.934" />
<path d="M646.419 344.333L624.572 331.681" />
<path d="M624.601 274.131L646.482 261.537" />
<path d="M696.307 290.338L696.273 315.584" />
<path d="M655.776 302.934L624.614 356.907" />
<path d="M655.776 302.934L624.614 248.961" />
<path d="M655.776 302.934L718.098 302.934" />
<path d="M720.94 84.5924L814.345 30.7293L814.4 30.8531L814.345 138.675L814.21 138.661L720.861 84.7022" />
<path d="M813.571 138.919L720.167 192.782L720.111 192.658L720.167 84.836L720.302 84.85L813.65 138.809" />
<path d="M814.14 248.325L720.791 194.366L720.871 194.256L814.275 140.393L814.33 140.517L814.275 248.339" />
<path d="M798.576 239.328L814.284 230.215" />
<path d="M736.444 185.276V185.276L736.483 203.436" />
<path d="M814.321 158.494V158.494L798.574 149.447" />
<path d="M719.861 303.037L719.916 195.215L720.051 195.229L813.4 249.188L813.321 249.298L719.916 303.161" />
<path d="M719.87 285.06L735.617 294.107" />
<path d="M735.616 204.226V204.226L719.907 213.339" />
<path d="M797.747 258.278V258.278L797.709 240.118" />
<path d="M815.025 249.848L814.969 357.67L814.835 357.656L721.486 303.697L721.565 303.588L814.969 249.724" />
<path d="M815.016 267.825L799.269 258.779" />
<path d="M799.27 348.66V348.66L814.979 339.546" />
<path d="M737.138 294.607V294.607L737.177 312.768" />
<path d="M815.413 138.912L815.469 31.09L815.604 31.104L908.953 85.0629L908.873 85.1727L815.469 139.036" />
<path d="M815.423 120.935L831.17 129.982" />
<path d="M831.168 40.1007V40.1007L815.459 49.2145" />
<path d="M893.3 94.1534V94.1534L893.261 75.9927" />
</svg>
