<svg width="6470" height="192" viewBox="0 0 6470 192" fill="none" xmlns="http://www.w3.org/2000/svg">
<path d="M3.02735 187.725L108.5 5.25714L108.715 5.41267L214 187.989L213.758 188.097L3 187.989" stroke="black" stroke-width="6"/>
<path d="M108.499 153.446L32.3294 137.03" stroke="black" stroke-width="6"/>
<path d="M184.668 137.03L108.498 153.446" stroke="black" stroke-width="6"/>
<path d="M108.498 66.7688L85.7411 90.014L77.4598 58.9527" stroke="black" stroke-width="6"/>
<path d="M139.537 58.9527L131.255 90.014L108.498 66.7688" stroke="black" stroke-width="6"/>
<path d="M108.5 60.9685L87.4845 83.5718L80.347 53.962" stroke="black" stroke-width="6"/>
<path d="M136.655 53.9619L129.517 83.5718L108.502 60.9684" stroke="black" stroke-width="6"/>
<path d="M108.5 5.25714C108.715 5.41267 59.2126 188.017 59.2126 188.017" stroke="black" stroke-width="6"/>
<path d="M157.786 188.017C157.786 188.017 108.284 5.41267 108.499 5.25714" stroke="black" stroke-width="6"/>
<path d="M108.715 5.41324L108.379 188.043" stroke="black" stroke-width="6"/>
<path d="M274.027 188.407L379.895 5.25714L380.11 5.41325L485.789 188.672L485.546 188.78L274 188.672L274.027 188.407ZM274.027 188.407L379.895 127.534L380.11 5.41325L379.895 127.534L485.546 188.78L379.895 127.534L353.739 112.4L379.895 127.534L406.078 112.449L379.895 127.534L379.867 157.752L379.895 127.534" stroke="black" stroke-width="6"/>
<path d="M545.817 188.407L651.684 5.25714L651.899 5.41325L757.578 188.672L757.335 188.78L545.789 188.672L545.817 188.407ZM545.817 188.407L651.684 127.534L651.899 5.41325L651.684 127.534L757.335 188.78L651.684 127.534L625.528 112.4L651.899 5.41325L677.867 112.449L757.335 188.78L651.656 157.752L545.817 188.407L625.528 112.4L651.684 127.534L677.867 112.449L651.684 127.534L651.656 157.752L651.684 127.534" stroke="black" stroke-width="6"/>
<path d="M817.606 188.407L923.473 5.25714L923.688 5.41325L1029.37 188.672L1029.12 188.78L817.578 188.672" stroke="black" stroke-width="6"/>
<path d="M885.024 188.708L957.036 63.2374" stroke="black" stroke-width="6"/>
<path d="M889.722 63.6476L962.377 188.747" stroke="black" stroke-width="6"/>
<path d="M995.677 130.251L851.01 130.622" stroke="black" stroke-width="6"/>
<path d="M860.748 188.692L945.293 42.8829" stroke="black" stroke-width="6"/>
<path d="M901.864 42.6343L985.866 188.757" stroke="black" stroke-width="6"/>
<path d="M1007.8 151.27L839.251 150.957" stroke="black" stroke-width="6"/>
<path d="M839.574 188.68L934.592 24.3188" stroke="black" stroke-width="6"/>
<path d="M912.467 24.2994L1007.3 188.768" stroke="black" stroke-width="6"/>
<path d="M1018.38 169.619L828.531 169.511" stroke="black" stroke-width="6"/>
<path d="M1089.39 188.407L1195.26 5.25714L1195.48 5.41325L1301.16 188.672L1300.91 188.78L1089.37 188.672" stroke="black" stroke-width="6"/>
<path d="M1361.18 188.407L1467.05 5.25714L1467.27 5.41325L1572.95 188.672L1572.7 188.78L1361.16 188.672" stroke="black" stroke-width="6"/>
<path d="M1396.37 127.533L1431.35 188.708" stroke="black" stroke-width="6"/>
<path d="M1502.39 66.3219L1431.92 66.0285" stroke="black" stroke-width="6"/>
<path d="M1502.39 188.744L1537.88 127.863" stroke="black" stroke-width="6"/>
<path d="M1467.05 127.533L1440.48 112.194" stroke="black" stroke-width="6"/>
<path d="M1467.05 127.533L1493.62 112.194" stroke="black" stroke-width="6"/>
<path d="M1467.05 127.533V158.212" stroke="black" stroke-width="6"/>
<path d="M1413.92 158.214L1467.05 66.1772" stroke="black" stroke-width="6"/>
<path d="M1467.06 66.1772L1520.19 158.214" stroke="black" stroke-width="6"/>
<path d="M1520.19 158.213H1413.92" stroke="black" stroke-width="6"/>
<path d="M1632.97 188.407L1738.84 5.25714L1739.06 5.41325L1844.73 188.672L1844.49 188.78L1632.95 188.672" stroke="black" stroke-width="6"/>
<path d="M1738.84 127.533L1712.27 112.194" stroke="black" stroke-width="6"/>
<path d="M1738.84 127.533L1765.41 112.194" stroke="black" stroke-width="6"/>
<path d="M1738.84 127.533V158.212" stroke="black" stroke-width="6"/>
<path d="M1791.9 97.0411L1632.95 188.67" stroke="black" stroke-width="6"/>
<path d="M1738.72 188.726L1738.84 5.25711" stroke="black" stroke-width="6"/>
<path d="M1685.9 96.8312L1844.73 188.671" stroke="black" stroke-width="6"/>
<path d="M1668.16 127.533L1703.14 188.708" stroke="black" stroke-width="6"/>
<path d="M1774.18 66.3219L1703.71 66.0285" stroke="black" stroke-width="6"/>
<path d="M1774.18 188.744L1809.67 127.863" stroke="black" stroke-width="6"/>
<path d="M1738.84 127.533L1703.14 188.708" stroke="black" stroke-width="6"/>
<path d="M1738.84 127.533L1703.71 66.0285" stroke="black" stroke-width="6"/>
<path d="M1738.84 127.533L1809.67 127.863" stroke="black" stroke-width="6"/>
<path d="M1703.71 66.0286L1703.14 188.707" stroke="black" stroke-width="6"/>
<path d="M1809.66 127.862L1703.71 66.0285" stroke="black" stroke-width="6"/>
<path d="M1703.14 188.708L1809.67 127.863" stroke="black" stroke-width="6"/>
<path d="M1904.76 188.407L2010.63 5.25714L2010.84 5.41325L2116.52 188.672L2116.28 188.78L1904.73 188.672" stroke="black" stroke-width="6"/>
<path d="M2010.63 127.533H1939.95" stroke="black" stroke-width="6"/>
<path d="M2010.63 127.533L2045.97 66.3225" stroke="black" stroke-width="6"/>
<path d="M2010.63 127.533L2045.97 188.744" stroke="black" stroke-width="6"/>
<path d="M2045.97 66.3226L1939.95 127.533" stroke="black" stroke-width="6"/>
<path d="M2045.97 188.744V66.3225" stroke="black" stroke-width="6"/>
<path d="M1939.95 127.533L2045.97 188.744" stroke="black" stroke-width="6"/>
<path d="M1992.95 96.9283L1975.31 66.339" stroke="black" stroke-width="6"/>
<path d="M2045.97 127.533L2081.28 127.554" stroke="black" stroke-width="6"/>
<path d="M1992.95 158.139L1975.28 188.708" stroke="black" stroke-width="6"/>
<path d="M2010.63 86.7254L2010.84 5.41217" stroke="black" stroke-width="6"/>
<path d="M2045.97 147.936L2116.28 188.779" stroke="black" stroke-width="6"/>
<path d="M1975.29 147.936L1904.76 188.406" stroke="black" stroke-width="6"/>
<path d="M2176.55 188.407L2282.42 5.25714L2282.63 5.41325L2388.31 188.672L2388.07 188.78L2176.52 188.672" stroke="black" stroke-width="6"/>
<path d="M2229.28 158.211L2282.41 66.174" stroke="black" stroke-width="6"/>
<path d="M2282.42 66.174L2335.55 158.211" stroke="black" stroke-width="6"/>
<path d="M2335.55 158.21H2229.28" stroke="black" stroke-width="6"/>
<path d="M2176.55 188.407L2282.42 127.534" stroke="black" stroke-width="6"/>
<path d="M2282.63 5.41217L2282.42 127.533" stroke="black" stroke-width="6"/>
<path d="M2388.07 188.78L2282.42 127.534" stroke="black" stroke-width="6"/>
<path d="M2448.34 188.407L2554.21 5.25714L2554.42 5.41325L2660.1 188.672L2659.86 188.78L2448.31 188.672" stroke="black" stroke-width="6"/>
<path d="M2572.67 114.939L2554.42 5.41217" stroke="black" stroke-width="6"/>
<path d="M2555.87 149.826L2659.85 188.78" stroke="black" stroke-width="6"/>
<path d="M2534.06 117.832L2448.34 188.405" stroke="black" stroke-width="6"/>
<path d="M2534.06 117.833L2554.42 5.41217" stroke="black" stroke-width="6"/>
<path d="M2572.68 114.94L2659.86 188.78" stroke="black" stroke-width="6"/>
<path d="M2555.88 149.826L2448.34 188.407" stroke="black" stroke-width="6"/>
<path d="M2589.23 103.867L2554.42 5.41217" stroke="black" stroke-width="6"/>
<path d="M2557.18 169.702L2659.86 188.78" stroke="black" stroke-width="6"/>
<path d="M2516.2 109.031L2448.34 188.408" stroke="black" stroke-width="6"/>
<path d="M2516.2 109.029L2554.42 5.41217" stroke="black" stroke-width="6"/>
<path d="M2589.23 103.868L2659.86 188.78" stroke="black" stroke-width="6"/>
<path d="M2557.19 169.702L2448.34 188.407" stroke="black" stroke-width="6"/>
<path d="M2554.21 127.533L2554.42 5.41217" stroke="black" stroke-width="6"/>
<path d="M2554.21 127.534L2659.86 188.78" stroke="black" stroke-width="6"/>
<path d="M2554.21 127.534L2448.34 188.407" stroke="black" stroke-width="6"/>
<path d="M2720.13 188.407L2826 5.25714L2826.21 5.41325L2931.89 188.672L2931.65 188.78L2720.1 188.672" stroke="black" stroke-width="6"/>
<path d="M2755.32 127.533L2826 69.3597L2896.64 127.533" stroke="black" stroke-width="6"/>
<path d="M2861.33 66.3225L2876.37 156.62L2790.68 188.708" stroke="black" stroke-width="6"/>
<path d="M2861.34 188.744L2775.62 156.619L2790.68 66.3583" stroke="black" stroke-width="6"/>
<path d="M2991.92 188.407L3097.79 5.25714L3098 5.41325L3203.68 188.672L3203.44 188.78L2991.89 188.672" stroke="black" stroke-width="6"/>
<path d="M3049.58 155.325L3097.78 71.8893" stroke="black" stroke-width="6"/>
<path d="M3097.82 71.8893L3145.97 155.352" stroke="black" stroke-width="6"/>
<path d="M3145.95 155.378L3049.59 155.351" stroke="black" stroke-width="6"/>
<path d="M3059.28 71.8668L3136.35 71.9162" stroke="black" stroke-width="6"/>
<path d="M3165.24 122.022L3126.66 188.741" stroke="black" stroke-width="6"/>
<path d="M3068.82 188.709L3030.33 121.941" stroke="black" stroke-width="6"/>
<path d="M3065.4 61.2794L3130.24 61.3288" stroke="black" stroke-width="6"/>
<path d="M3171.35 132.615L3138.89 188.748" stroke="black" stroke-width="6"/>
<path d="M3056.6 188.703L3024.22 132.522" stroke="black" stroke-width="6"/>
<path d="M3263.71 188.407L3369.57 5.25714L3369.79 5.41325L3475.47 188.672L3475.23 188.78L3263.68 188.672" stroke="black" stroke-width="6"/>
<path d="M3321.37 155.324L3369.57 127.53" stroke="black" stroke-width="6"/>
<path d="M3369.6 71.8893L3369.57 127.531" stroke="black" stroke-width="6"/>
<path d="M3417.74 155.378L3369.57 127.53" stroke="black" stroke-width="6"/>
<path d="M3331.07 71.8668L3408.14 71.9162" stroke="black" stroke-width="6"/>
<path d="M3437.03 122.022L3398.45 188.741" stroke="black" stroke-width="6"/>
<path d="M3340.61 188.709L3302.12 121.941" stroke="black" stroke-width="6"/>
<path d="M3337.19 61.2794L3402.03 61.3288" stroke="black" stroke-width="6"/>
<path d="M3443.14 132.615L3410.68 188.748" stroke="black" stroke-width="6"/>
<path d="M3328.39 188.703L3296.01 132.522" stroke="black" stroke-width="6"/>
<path d="M3535.5 188.407L3641.36 5.25714L3641.58 5.41325L3747.26 188.672L3747.02 188.78L3535.47 188.672" stroke="black" stroke-width="6"/>
<path d="M3641.36 5.25714C3641.72 92.5169 3603.83 152.048 3535.47 188.672" stroke="black" stroke-width="6"/>
<path d="M3747.26 188.672C3671.51 145.351 3638.9 82.7675 3641.36 5.25711" stroke="black" stroke-width="6"/>
<path d="M3535.47 188.673C3610.86 144.734 3681.36 147.787 3747.26 188.673" stroke="black" stroke-width="6"/>
<path d="M3641.36 5.25714C3622.31 82.1607 3586.63 142.93 3535.47 188.672" stroke="black" stroke-width="6"/>
<path d="M3747.26 188.672C3690.19 133.715 3655.4 72.4322 3641.36 5.25711" stroke="black" stroke-width="6"/>
<path d="M3535.47 188.671C3611.6 166.724 3682.07 167.238 3747.26 188.671" stroke="black" stroke-width="6"/>
<path d="M3807.29 188.407L3913.15 5.25714L3913.37 5.41325L4019.05 188.672L4018.8 188.78L3807.26 188.672" stroke="black" stroke-width="6"/>
<path d="M3913.15 154L3836.7 137.523" stroke="black" stroke-width="6"/>
<path d="M3989.61 137.523L3913.15 154" stroke="black" stroke-width="6"/>
<path d="M3913.15 61.1786L3892.06 83.8665L3884.89 54.1459" stroke="black" stroke-width="6"/>
<path d="M3941.41 54.1459L3934.25 83.8665L3913.15 61.1786" stroke="black" stroke-width="6"/>
<path d="M3913.15 5.25711C3913.37 5.41322 3863.68 188.701 3863.68 188.701" stroke="black" stroke-width="6"/>
<path d="M3962.62 188.701C3962.62 188.701 3912.94 5.41319 3913.15 5.25708" stroke="black" stroke-width="6"/>
<path d="M3913.37 5.41214L3913.03 188.725" stroke="black" stroke-width="6"/>
<path d="M4079.07 188.407L4184.94 5.25714L4185.16 5.41325L4290.84 188.672L4290.59 188.78L4079.05 188.672" stroke="black" stroke-width="6"/>
<path d="M4184.94 127.533L4140.26 157.104L4184.83 184.868" stroke="black" stroke-width="6"/>
<path d="M4185.06 184.868L4229.62 157.104L4184.94 127.533" stroke="black" stroke-width="6"/>
<path d="M4118.48 120.229L4140.26 157.104L4091.1 167.604L4132.37 188.699" stroke="black" stroke-width="6"/>
<path d="M4237.51 188.699L4278.78 167.604L4229.62 157.104L4251.4 120.229" stroke="black" stroke-width="6"/>
<path d="M4185.15 5.41214L4184.82 188.725" stroke="black" stroke-width="6"/>
<path d="M4350.86 188.407L4456.73 5.25714L4456.95 5.41325L4562.63 188.672L4562.38 188.78L4350.84 188.672" stroke="black" stroke-width="6"/>
<path d="M4432.02 48.0106L4481.55 48.0767" stroke="black" stroke-width="6"/>
<path d="M4537.96 145.891L4513.13 188.754" stroke="black" stroke-width="6"/>
<path d="M4400.22 188.694L4375.51 145.765" stroke="black" stroke-width="6"/>
<path d="M4456.73 127.534V5.25711" stroke="black" stroke-width="6"/>
<path d="M4456.73 127.533L4562.62 188.672" stroke="black" stroke-width="6"/>
<path d="M4456.73 127.533L4350.84 188.672" stroke="black" stroke-width="6"/>
<path d="M4622.65 188.407L4728.52 5.25714L4728.74 5.41325L4834.41 188.672L4834.17 188.78L4622.63 188.672" stroke="black" stroke-width="6"/>
<path d="M4622.63 188.672L4752.34 46.3496" stroke="black" stroke-width="6"/>
<path d="M4704.7 46.3496L4834.42 188.672" stroke="black" stroke-width="6"/>
<path d="M4894.44 188.407L5000.31 5.25714L5000.53 5.41325L5106.21 188.672L5105.96 188.78L4894.42 188.672" stroke="black" stroke-width="6"/>
<path d="M5000.19 188.728L4947.63 157.948L4947.38 96.8344" stroke="black" stroke-width="6"/>
<path d="M4947.38 96.8331L5000.31 66.7105L5053.36 97.0435" stroke="black" stroke-width="6"/>
<path d="M5053.36 97.0444L5052.98 157.948L5000.19 188.728" stroke="black" stroke-width="6"/>
<path d="M4894.42 188.671L4947.64 157.945" stroke="black" stroke-width="6"/>
<path d="M5000.31 5.25711V66.7095" stroke="black" stroke-width="6"/>
<path d="M5106.2 188.671L5052.99 157.945" stroke="black" stroke-width="6"/>
<path d="M5166.23 188.407L5272.1 5.25714L5272.32 5.41325L5378 188.672L5377.75 188.78L5166.21 188.672" stroke="black" stroke-width="6"/>
<path d="M5285.95 135.53H5258.25L5219.42 157.946" stroke="black" stroke-width="6"/>
<path d="M5258.25 135.53L5272.1 111.544V66.7105" stroke="black" stroke-width="6"/>
<path d="M5272.1 111.544L5285.95 135.531L5324.77 157.948" stroke="black" stroke-width="6"/>
<path d="M5187.06 152.579L5228.43 152.654L5207.35 188.695" stroke="black" stroke-width="6"/>
<path d="M5292.94 41.3678L5272.19 77.1518L5251.52 40.8738" stroke="black" stroke-width="6"/>
<path d="M5336.31 188.661L5315.7 152.802L5357.45 153.039" stroke="black" stroke-width="6"/>
<path d="M5183.88 157.871L5219.43 157.946L5201.77 188.69" stroke="black" stroke-width="6"/>
<path d="M5289.93 35.9692L5272.1 66.7107L5254.3 36.045" stroke="black" stroke-width="6"/>
<path d="M5342.48 188.763L5324.77 157.946L5360.23 157.868" stroke="black" stroke-width="6"/>
<path d="M5438.02 188.407L5543.89 5.25714L5544.11 5.41325L5649.78 188.672L5649.54 188.78L5438 188.672" stroke="black" stroke-width="6"/>
<path d="M5455.67 157.871L5473.56 188.69" stroke="black" stroke-width="6"/>
<path d="M5561.72 35.9692V35.9692L5526.09 36.045" stroke="black" stroke-width="6"/>
<path d="M5614.27 188.763V188.763L5632.02 157.868" stroke="black" stroke-width="6"/>
<path d="M5709.81 188.407L5815.68 5.25714L5815.89 5.41325L5921.57 188.672L5921.33 188.78L5709.78 188.672" stroke="black" stroke-width="6"/>
<path d="M5727.35 178.05L5709.81 188.406" stroke="black" stroke-width="6"/>
<path d="M5816.09 25.7758L5815.89 5.41217" stroke="black" stroke-width="6"/>
<path d="M5903.59 178.771L5921.33 188.779" stroke="black" stroke-width="6"/>
<path d="M5727.46 157.871L5727.35 178.052L5745.34 188.69" stroke="black" stroke-width="6"/>
<path d="M5833.51 35.9673V35.9673L5816.09 25.7761L5797.88 36.043" stroke="black" stroke-width="6"/>
<path d="M5886.06 188.763V188.763L5903.59 178.773L5903.81 157.868" stroke="black" stroke-width="6"/>
<path d="M5727.46 157.868L5745.34 188.687" stroke="black" stroke-width="6"/>
<path d="M5833.51 35.9661V35.9661L5797.88 36.0418" stroke="black" stroke-width="6"/>
<path d="M5886.06 188.76V188.76L5903.81 157.864" stroke="black" stroke-width="6"/>
<path d="M5981.6 188.407L6087.47 5.25714L6087.68 5.41325L6193.36 188.672L6193.12 188.78L5981.57 188.672" stroke="black" stroke-width="6"/>
<path d="M6123.15 66.8138L6122.93 148.359" stroke="black" stroke-width="6"/>
<path d="M6052.25 188.935L6122.93 148.359L6193.57 188.935" stroke="black" stroke-width="6"/>
<path d="M6052.74 66.8138L6052.53 148.359" stroke="black" stroke-width="6"/>
<path d="M5981.85 188.935L6052.53 148.359L6123.17 188.935" stroke="black" stroke-width="6"/>
<path d="M6087.68 5.41217L6087.47 86.9572" stroke="black" stroke-width="6"/>
<path d="M6016.79 127.533L6087.47 86.9577L6158.11 127.533" stroke="black" stroke-width="6"/>
<path d="M6253.6 188.407L6359.46 5.25714L6359.68 5.41325L6465.36 188.672L6465.12 188.78L6253.57 188.672" stroke="black" stroke-width="6"/>
<path d="M6290.69 189.222L6377.49 37.882" stroke="black" stroke-width="6"/>
<path d="M6340.88 37.9272L6428.55 188.763" stroke="black" stroke-width="6"/>
<path d="M6446.81 157.044L6272.35 157.547" stroke="black" stroke-width="6"/>
</svg>
