<svg xmlns="http://www.w3.org/2000/svg" width="384.1" height="332.837" viewBox="0 0 288.075 249.628"><path d="M.037 249.12 144.037 0l.293.212L288.075 249.48l-.33.148L0 249.48m144.037-83.16L107.9 145.455m36.137 20.865 36.139-20.865m-36.139 20.865v41.73m72.166-83.204L0 249.48m143.872.074L144.037 0m-72 124.56 216.038 124.92M47.899 166.32l47.58 83.209m96.628-166.468-95.851-.399m95.851 166.917 48.27-82.81m-96.34-.449L95.48 249.529m48.557-83.209L96.256 82.662m47.781 83.658 96.34.449M96.256 82.662l-.777 166.867m144.899-82.76L96.256 82.662m-.777 166.867 144.899-82.76" fill="none" stroke="#000" stroke-width=".72"/></svg>