<svg xmlns="http://www.w3.org/2000/svg" width="384.1" height="332.837" viewBox="0 0 288.075 249.628"><g fill="none" stroke="#000" stroke-width=".72"><path d="M.037 249.12 144.037 0l.293.212L288.075 249.48l-.33.148L0 249.48M144.037 166.32 107.9 145.455M144.037 166.32l36.139-20.865M144.037 166.32v41.73M216.203 124.846 0 249.48M143.872 249.554 144.037 0M72.037 124.56l216.038 124.92"/><g><path d="m47.899 166.32 47.58 83.209M192.107 83.061l-95.851-.399M192.107 249.579l48.27-82.81"/></g><g><path d="M144.037 166.32 95.48 249.529M144.037 166.32 96.256 82.662M144.037 166.32l96.34.449"/></g><g><path d="m96.256 82.662-.777 166.867M240.378 166.769 96.256 82.662M95.479 249.529l144.899-82.76"/></g></g></svg>