<svg xmlns="http://www.w3.org/2000/svg" width="384.1" height="332.837" viewBox="0 0 288.075 249.628"><path d="M.037 249.12 144.037 0l.293.212L288.075 249.48l-.33.148L0 249.48m144.037-83.16H47.9m96.137 0 48.07-83.259m-48.07 83.259 48.07 83.259m0-166.518L47.899 166.32m144.208 83.259V83.06M47.899 166.32l144.208 83.259M120.003 124.69l-23.99-41.607m96.094 83.237 48.028.028M120.003 207.95l-24.038 41.58m48.072-138.716L144.33.212m47.777 193.861 95.637 55.555M95.968 194.073.038 249.12" fill="none" stroke="#000" stroke-width=".72"/></svg>