<svg xmlns="http://www.w3.org/2000/svg" width="384.1" height="332.837" viewBox="0 0 288.075 249.628"><g fill="none" stroke="#000" stroke-width=".72"><path d="M.037 249.12 144.037 0l.293.212L288.075 249.48l-.33.148L0 249.48M144.037 166.32H47.9M144.037 166.32l48.07-83.259M144.037 166.32l48.07 83.259M192.107 83.061 47.899 166.32M192.107 249.579V83.06M47.899 166.32l144.208 83.259"/><g><path d="m120.003 124.69-23.99-41.607M192.107 166.32l48.028.028M120.003 207.95l-24.038 41.58"/></g><g><path d="M144.037 110.814 144.33.212M192.107 194.073l95.637 55.555M95.968 194.073.038 249.12"/></g></g></svg>