<svg xmlns="http://www.w3.org/2000/svg" width="384.1" height="332.837" viewBox="0 0 288.075 249.628"><g fill="none" stroke="#000" stroke-width=".72"><path d="M.037 249.12 144.037 0l.293.212L288.075 249.48l-.33.148L0 249.48M169.162 149.19 144.33.213M146.31 196.643l141.434 52.985M116.64 153.126.038 249.12M116.64 153.126 144.33.212M169.162 149.19l118.582 100.438M146.31 196.643.036 249.12"/><g><path d="M191.684 134.13 144.33.212M148.091 223.678l139.653 25.95M92.337 141.152.037 249.12"/></g><g><path d="M92.337 141.152 144.33.212M191.684 134.13l96.06 115.498M148.091 223.678.037 249.12"/></g><g><path d="M144.037 166.32 144.33.212M144.037 166.32l143.707 83.308M144.037 166.32l-144 82.8"/></g></g></svg>