<svg xmlns="http://www.w3.org/2000/svg" width="384.1" height="332.837" viewBox="0 0 288.075 249.628"><path d="M.037 249.12 144.037 0l.293.212L288.075 249.48l-.33.148L0 249.48m169.162-100.29L144.33.213m1.98 196.43 141.434 52.985M116.64 153.126.038 249.12m116.602-95.994L144.33.212m24.832 148.978 118.582 100.438M146.31 196.643.036 249.12m191.648-114.99L144.33.212m3.761 223.466 139.653 25.95M92.337 141.152.037 249.12m92.3-107.968L144.33.212m47.354 133.918 96.06 115.498m-139.653-25.95L.037 249.12m144-82.8L144.33.212m-.293 166.108 143.707 83.308M144.037 166.32l-144 82.8" fill="none" stroke="#000" stroke-width=".72"/></svg>