<svg xmlns="http://www.w3.org/2000/svg" width="384.1" height="332.837" viewBox="0 0 288.075 249.628"><g fill="none" stroke="#000" stroke-width=".72"><path d="M.037 249.12 144.037 0l.293.212L288.075 249.48l-.33.148L0 249.48"/><path d="M144.037 0C144.523 118.69 92.978 199.664 0 249.48"/><path d="M288.075 249.48C185.043 190.555 140.69 105.43 144.037 0"/><path d="M0 249.48c102.546-59.766 198.444-55.614 288.075 0"/><path d="M144.037 0C118.114 104.604 69.585 187.263 0 249.48m288.075 0C210.447 174.728 163.127 91.371 144.037 0M0 249.48c103.551-29.852 199.4-29.154 288.075 0"/></g></svg>