<svg xmlns="http://www.w3.org/2000/svg" width="384.1" height="332.837" viewBox="0 0 288.075 249.628"><g fill="none" stroke="#000" stroke-width=".72"><path d="M.037 249.12 144.037 0l.293.212L288.075 249.48l-.33.148L0 249.48"/><path d="M162.874 177.196H125.2l-52.811 30.49M125.2 177.196l18.837-32.627V83.587M144.037 144.569l18.837 32.627 52.812 30.49"/><g><path d="m28.367 200.384 56.262.102-28.676 49.023M172.372 49.114l-28.22 48.673-28.116-49.345M231.373 249.462l-28.042-48.776 56.792.323"/></g><g><path d="m24.047 207.584 48.342.102-24.02 41.819M168.297 41.773l-24.26 41.814-24.205-41.711M239.768 249.603l-24.082-41.917 48.226-.107"/></g></g></svg>