<svg xmlns="http://www.w3.org/2000/svg" width="384.1" height="332.837" viewBox="0 0 288.075 249.628"><g fill="none" stroke="#000" stroke-width=".72"><path d="M.037 249.12 144.037 0l.293.212L288.075 249.48l-.33.148L0 249.48"/><path d="M162.874 177.196H125.2l-52.811 30.49m52.811-30.49 18.837-32.627V83.587m0 60.982 18.837 32.627 52.812 30.49"/><path d="m28.367 200.384 56.262.102-28.676 49.023M172.372 49.114l-28.22 48.673-28.116-49.345m115.337 201.02-28.042-48.776 56.792.323"/><path d="m24.047 207.584 48.342.102-24.02 41.819M168.297 41.773l-24.26 41.814-24.205-41.711m119.936 207.727-24.082-41.917 48.226-.107"/></g></svg>