<svg xmlns="http://www.w3.org/2000/svg" width="384.1" height="332.837" fill="none" stroke="#000" stroke-width=".72" viewBox="0 0 288.075 249.628"><path d="M.037 249.12 144.037 0l.293.212L288.075 249.48l-.33.148L0 249.48M47.762 221.678.037 249.12M144.233 55.264 144.33.212M240.116 222.018l47.628 27.61"/><g><path d="m47.899 166.32-.137 55.358L95.48 249.53M192.107 83.061l-47.874-27.797-47.977 27.398M192.107 249.579l48.01-27.561.26-55.25"/></g><g><path d="m47.899 166.32 47.58 83.209M192.107 83.061l-95.851-.399M192.107 249.579l48.27-82.81"/></g><g><path d="m47.899 166.32 47.58 83.209M192.107 83.061l-95.851-.399M192.107 249.579l48.27-82.81"/></g></svg>