<svg xmlns="http://www.w3.org/2000/svg" width="384.1" height="332.837" viewBox="0 0 288.075 249.628"><g fill="none" stroke="#000" stroke-width=".72"><path d="M.037 249.12 144.037 0l.293.212L288.075 249.48l-.33.148L0 249.48m144.037-47.16L40.044 179.908m207.986 0L144.037 202.32"/><path d="m144.037 83.982-31.07 31.736-11.306-42.408m84.752 0-11.306 42.408-31.07-31.736"/><path d="m144.037 76.062-28.692 30.86-9.745-40.426"/><path d="m182.474 66.496-9.744 40.426-28.693-30.86m0-76.062c.293.212-67.29 249.52-67.29 249.52"/><path d="M211.328 249.52S143.744.211 144.038 0m.292.212-.458 249.342"/></g></svg>